<mxfile host="app.diagrams.net" modified="2022-08-22T23:26:41.274Z" agent="5.0 (Windows NT 10.0; Win64; x64) AppleWebKit/537.36 (KHTML, like Gecko) Chrome/103.0.5060.114 Safari/537.36 OPR/89.0.4447.64" etag="gCLIILCRFuAWwLa6gVvd" version="20.2.6" type="github">
  <diagram id="UUmdrgDsnEZKCLBV9U6a" name="Page-1">
    <mxGraphModel dx="511" dy="302" grid="1" gridSize="10" guides="1" tooltips="1" connect="1" arrows="1" fold="1" page="1" pageScale="1" pageWidth="850" pageHeight="1100" math="0" shadow="0">
      <root>
        <mxCell id="0" />
        <mxCell id="1" parent="0" />
        <mxCell id="bznOIikUApJCvlGb8H-H-5" style="rounded=0;orthogonalLoop=1;jettySize=auto;html=1;sketch=0;" edge="1" parent="1" source="bznOIikUApJCvlGb8H-H-3" target="bznOIikUApJCvlGb8H-H-4">
          <mxGeometry relative="1" as="geometry" />
        </mxCell>
        <mxCell id="bznOIikUApJCvlGb8H-H-7" style="edgeStyle=none;rounded=0;sketch=0;orthogonalLoop=1;jettySize=auto;html=1;fontSize=12;endArrow=classic;endFill=1;startSize=6;endSize=6;" edge="1" parent="1" source="bznOIikUApJCvlGb8H-H-3" target="bznOIikUApJCvlGb8H-H-8">
          <mxGeometry relative="1" as="geometry">
            <mxPoint x="270" y="153.47826086956513" as="targetPoint" />
          </mxGeometry>
        </mxCell>
        <mxCell id="bznOIikUApJCvlGb8H-H-3" value="Idea" style="rounded=0;whiteSpace=wrap;html=1;sketch=0;" vertex="1" parent="1">
          <mxGeometry x="320" y="200" width="120" height="60" as="geometry" />
        </mxCell>
        <mxCell id="bznOIikUApJCvlGb8H-H-4" value="Writing" style="rounded=0;whiteSpace=wrap;html=1;sketch=0;" vertex="1" parent="1">
          <mxGeometry x="30" y="190" width="120" height="60" as="geometry" />
        </mxCell>
        <mxCell id="bznOIikUApJCvlGb8H-H-11" style="edgeStyle=none;rounded=0;sketch=0;orthogonalLoop=1;jettySize=auto;html=1;fontSize=12;endArrow=classic;endFill=1;startSize=6;endSize=6;" edge="1" parent="1" source="bznOIikUApJCvlGb8H-H-8" target="bznOIikUApJCvlGb8H-H-4">
          <mxGeometry relative="1" as="geometry" />
        </mxCell>
        <mxCell id="bznOIikUApJCvlGb8H-H-8" value="Passive MOC" style="rounded=0;whiteSpace=wrap;html=1;fontSize=16;" vertex="1" parent="1">
          <mxGeometry x="280" y="70" width="120" height="60" as="geometry" />
        </mxCell>
        <mxCell id="bznOIikUApJCvlGb8H-H-18" style="edgeStyle=none;rounded=0;sketch=0;orthogonalLoop=1;jettySize=auto;html=1;fontSize=12;endArrow=classic;endFill=1;startSize=6;endSize=6;" edge="1" parent="1" source="bznOIikUApJCvlGb8H-H-13" target="bznOIikUApJCvlGb8H-H-3">
          <mxGeometry relative="1" as="geometry" />
        </mxCell>
        <mxCell id="bznOIikUApJCvlGb8H-H-20" style="edgeStyle=none;rounded=0;sketch=0;orthogonalLoop=1;jettySize=auto;html=1;fontSize=12;endArrow=classic;endFill=1;startSize=6;endSize=6;" edge="1" parent="1" source="bznOIikUApJCvlGb8H-H-13" target="bznOIikUApJCvlGb8H-H-8">
          <mxGeometry relative="1" as="geometry" />
        </mxCell>
        <mxCell id="bznOIikUApJCvlGb8H-H-13" value="Active MOC" style="rounded=0;whiteSpace=wrap;html=1;fontSize=16;" vertex="1" parent="1">
          <mxGeometry x="740" y="60" width="120" height="60" as="geometry" />
        </mxCell>
        <mxCell id="bznOIikUApJCvlGb8H-H-19" style="edgeStyle=none;rounded=0;sketch=0;orthogonalLoop=1;jettySize=auto;html=1;fontSize=12;endArrow=classic;endFill=1;startSize=6;endSize=6;" edge="1" parent="1" source="bznOIikUApJCvlGb8H-H-14" target="bznOIikUApJCvlGb8H-H-3">
          <mxGeometry relative="1" as="geometry" />
        </mxCell>
        <mxCell id="bznOIikUApJCvlGb8H-H-14" value="Research Question" style="rounded=0;whiteSpace=wrap;html=1;fontSize=16;" vertex="1" parent="1">
          <mxGeometry x="710" y="220" width="120" height="60" as="geometry" />
        </mxCell>
        <mxCell id="bznOIikUApJCvlGb8H-H-16" style="edgeStyle=none;rounded=0;sketch=0;orthogonalLoop=1;jettySize=auto;html=1;fontSize=12;endArrow=classic;endFill=1;startSize=6;endSize=6;" edge="1" parent="1" source="bznOIikUApJCvlGb8H-H-15" target="bznOIikUApJCvlGb8H-H-13">
          <mxGeometry relative="1" as="geometry" />
        </mxCell>
        <mxCell id="bznOIikUApJCvlGb8H-H-17" style="edgeStyle=none;rounded=0;sketch=0;orthogonalLoop=1;jettySize=auto;html=1;fontSize=12;endArrow=classic;endFill=1;startSize=6;endSize=6;" edge="1" parent="1" source="bznOIikUApJCvlGb8H-H-15" target="bznOIikUApJCvlGb8H-H-14">
          <mxGeometry relative="1" as="geometry" />
        </mxCell>
        <mxCell id="bznOIikUApJCvlGb8H-H-15" value="Research Note" style="rounded=0;whiteSpace=wrap;html=1;fontSize=16;" vertex="1" parent="1">
          <mxGeometry x="920" y="140" width="120" height="60" as="geometry" />
        </mxCell>
        <mxCell id="bznOIikUApJCvlGb8H-H-26" value="Media" style="shape=umlFrame;whiteSpace=wrap;html=1;fontSize=16;" vertex="1" parent="1">
          <mxGeometry x="390" y="600" width="300" height="200" as="geometry" />
        </mxCell>
        <mxCell id="bznOIikUApJCvlGb8H-H-48" style="edgeStyle=none;rounded=0;sketch=0;orthogonalLoop=1;jettySize=auto;html=1;fontSize=12;endArrow=classic;endFill=1;startSize=6;endSize=6;" edge="1" parent="1" source="bznOIikUApJCvlGb8H-H-27" target="bznOIikUApJCvlGb8H-H-31">
          <mxGeometry relative="1" as="geometry" />
        </mxCell>
        <mxCell id="bznOIikUApJCvlGb8H-H-57" style="edgeStyle=none;rounded=0;sketch=0;orthogonalLoop=1;jettySize=auto;html=1;fontSize=12;endArrow=classic;endFill=1;startSize=6;endSize=6;" edge="1" parent="1" source="bznOIikUApJCvlGb8H-H-27" target="bznOIikUApJCvlGb8H-H-32">
          <mxGeometry relative="1" as="geometry" />
        </mxCell>
        <mxCell id="bznOIikUApJCvlGb8H-H-27" value="Article" style="rounded=0;whiteSpace=wrap;html=1;fontSize=16;" vertex="1" parent="1">
          <mxGeometry x="1040" y="560" width="120" height="60" as="geometry" />
        </mxCell>
        <mxCell id="bznOIikUApJCvlGb8H-H-46" style="edgeStyle=none;rounded=0;sketch=0;orthogonalLoop=1;jettySize=auto;html=1;fontSize=12;endArrow=classic;endFill=1;startSize=6;endSize=6;" edge="1" parent="1" source="bznOIikUApJCvlGb8H-H-28" target="bznOIikUApJCvlGb8H-H-27">
          <mxGeometry relative="1" as="geometry" />
        </mxCell>
        <mxCell id="bznOIikUApJCvlGb8H-H-28" value="Publication" style="rounded=0;whiteSpace=wrap;html=1;fontSize=16;" vertex="1" parent="1">
          <mxGeometry x="1040" y="460" width="120" height="60" as="geometry" />
        </mxCell>
        <mxCell id="bznOIikUApJCvlGb8H-H-39" style="edgeStyle=none;rounded=0;sketch=0;orthogonalLoop=1;jettySize=auto;html=1;fontSize=12;endArrow=classic;endFill=1;startSize=6;endSize=6;" edge="1" parent="1" source="bznOIikUApJCvlGb8H-H-29" target="bznOIikUApJCvlGb8H-H-33">
          <mxGeometry relative="1" as="geometry" />
        </mxCell>
        <mxCell id="bznOIikUApJCvlGb8H-H-50" style="edgeStyle=none;rounded=0;sketch=0;orthogonalLoop=1;jettySize=auto;html=1;fontSize=12;endArrow=classic;endFill=1;startSize=6;endSize=6;exitX=1;exitY=1;exitDx=0;exitDy=0;" edge="1" parent="1" source="bznOIikUApJCvlGb8H-H-29" target="bznOIikUApJCvlGb8H-H-31">
          <mxGeometry relative="1" as="geometry">
            <Array as="points">
              <mxPoint x="1190" y="450" />
              <mxPoint x="1190" y="520" />
            </Array>
          </mxGeometry>
        </mxCell>
        <mxCell id="bznOIikUApJCvlGb8H-H-58" style="edgeStyle=none;rounded=0;sketch=0;orthogonalLoop=1;jettySize=auto;html=1;fontSize=12;endArrow=classic;endFill=1;startSize=6;endSize=6;exitX=1;exitY=0.833;exitDx=0;exitDy=0;exitPerimeter=0;entryX=0.083;entryY=0;entryDx=0;entryDy=0;entryPerimeter=0;" edge="1" parent="1" source="bznOIikUApJCvlGb8H-H-29" target="bznOIikUApJCvlGb8H-H-32">
          <mxGeometry relative="1" as="geometry">
            <mxPoint x="1220" y="460" as="targetPoint" />
          </mxGeometry>
        </mxCell>
        <mxCell id="bznOIikUApJCvlGb8H-H-29" value="Book" style="rounded=0;whiteSpace=wrap;html=1;fontSize=16;" vertex="1" parent="1">
          <mxGeometry x="1040" y="360" width="120" height="60" as="geometry" />
        </mxCell>
        <mxCell id="bznOIikUApJCvlGb8H-H-47" style="edgeStyle=none;rounded=0;sketch=0;orthogonalLoop=1;jettySize=auto;html=1;fontSize=12;endArrow=classic;endFill=1;startSize=6;endSize=6;entryX=0.5;entryY=1;entryDx=0;entryDy=0;exitX=1;exitY=0;exitDx=0;exitDy=0;" edge="1" parent="1" source="bznOIikUApJCvlGb8H-H-30" target="bznOIikUApJCvlGb8H-H-31">
          <mxGeometry relative="1" as="geometry" />
        </mxCell>
        <mxCell id="bznOIikUApJCvlGb8H-H-59" style="edgeStyle=none;rounded=0;sketch=0;orthogonalLoop=1;jettySize=auto;html=1;fontSize=12;endArrow=classic;endFill=1;startSize=6;endSize=6;" edge="1" parent="1" source="bznOIikUApJCvlGb8H-H-30">
          <mxGeometry relative="1" as="geometry">
            <mxPoint x="1220" y="520" as="targetPoint" />
            <Array as="points">
              <mxPoint x="1190" y="630" />
              <mxPoint x="1190" y="550" />
            </Array>
          </mxGeometry>
        </mxCell>
        <mxCell id="bznOIikUApJCvlGb8H-H-30" value="Address" style="rounded=0;whiteSpace=wrap;html=1;fontSize=16;" vertex="1" parent="1">
          <mxGeometry x="1040" y="660" width="120" height="60" as="geometry" />
        </mxCell>
        <mxCell id="bznOIikUApJCvlGb8H-H-31" value="Passages" style="rounded=0;whiteSpace=wrap;html=1;fontSize=16;" vertex="1" parent="1">
          <mxGeometry x="1200" y="560" width="120" height="60" as="geometry" />
        </mxCell>
        <mxCell id="bznOIikUApJCvlGb8H-H-32" value="Quotes" style="rounded=0;whiteSpace=wrap;html=1;fontSize=16;" vertex="1" parent="1">
          <mxGeometry x="1200" y="460" width="120" height="60" as="geometry" />
        </mxCell>
        <mxCell id="bznOIikUApJCvlGb8H-H-33" value="Story" style="rounded=0;whiteSpace=wrap;html=1;fontSize=16;" vertex="1" parent="1">
          <mxGeometry x="1200" y="360" width="120" height="60" as="geometry" />
        </mxCell>
        <mxCell id="bznOIikUApJCvlGb8H-H-40" style="edgeStyle=none;rounded=0;sketch=0;orthogonalLoop=1;jettySize=auto;html=1;fontSize=12;endArrow=classic;endFill=1;startSize=6;endSize=6;" edge="1" parent="1" source="bznOIikUApJCvlGb8H-H-34" target="bznOIikUApJCvlGb8H-H-33">
          <mxGeometry relative="1" as="geometry" />
        </mxCell>
        <mxCell id="bznOIikUApJCvlGb8H-H-52" style="edgeStyle=none;rounded=0;sketch=0;orthogonalLoop=1;jettySize=auto;html=1;fontSize=12;endArrow=classic;endFill=1;startSize=6;endSize=6;" edge="1" parent="1" source="bznOIikUApJCvlGb8H-H-34" target="bznOIikUApJCvlGb8H-H-32">
          <mxGeometry relative="1" as="geometry" />
        </mxCell>
        <mxCell id="bznOIikUApJCvlGb8H-H-53" style="edgeStyle=none;rounded=0;sketch=0;orthogonalLoop=1;jettySize=auto;html=1;fontSize=12;endArrow=classic;endFill=1;startSize=6;endSize=6;" edge="1" parent="1" source="bznOIikUApJCvlGb8H-H-34" target="bznOIikUApJCvlGb8H-H-31">
          <mxGeometry relative="1" as="geometry" />
        </mxCell>
        <mxCell id="bznOIikUApJCvlGb8H-H-34" value="Song" style="rounded=0;whiteSpace=wrap;html=1;fontSize=16;" vertex="1" parent="1">
          <mxGeometry x="1360" y="460" width="120" height="60" as="geometry" />
        </mxCell>
        <mxCell id="bznOIikUApJCvlGb8H-H-51" style="edgeStyle=none;rounded=0;sketch=0;orthogonalLoop=1;jettySize=auto;html=1;fontSize=12;endArrow=classic;endFill=1;startSize=6;endSize=6;" edge="1" parent="1" source="bznOIikUApJCvlGb8H-H-35" target="bznOIikUApJCvlGb8H-H-32">
          <mxGeometry relative="1" as="geometry" />
        </mxCell>
        <mxCell id="bznOIikUApJCvlGb8H-H-56" style="edgeStyle=none;rounded=0;sketch=0;orthogonalLoop=1;jettySize=auto;html=1;fontSize=12;endArrow=classic;endFill=1;startSize=6;endSize=6;" edge="1" parent="1" source="bznOIikUApJCvlGb8H-H-35" target="bznOIikUApJCvlGb8H-H-33">
          <mxGeometry relative="1" as="geometry" />
        </mxCell>
        <mxCell id="bznOIikUApJCvlGb8H-H-35" value="Movies &amp;amp; TV" style="rounded=0;whiteSpace=wrap;html=1;fontSize=16;" vertex="1" parent="1">
          <mxGeometry x="1360" y="360" width="120" height="60" as="geometry" />
        </mxCell>
        <mxCell id="bznOIikUApJCvlGb8H-H-41" style="edgeStyle=none;rounded=0;sketch=0;orthogonalLoop=1;jettySize=auto;html=1;fontSize=12;endArrow=classic;endFill=1;startSize=6;endSize=6;" edge="1" parent="1" source="bznOIikUApJCvlGb8H-H-36" target="bznOIikUApJCvlGb8H-H-33">
          <mxGeometry relative="1" as="geometry">
            <Array as="points">
              <mxPoint x="1340" y="540" />
              <mxPoint x="1340" y="450" />
            </Array>
          </mxGeometry>
        </mxCell>
        <mxCell id="bznOIikUApJCvlGb8H-H-43" style="edgeStyle=none;rounded=0;sketch=0;orthogonalLoop=1;jettySize=auto;html=1;fontSize=12;endArrow=classic;endFill=1;startSize=6;endSize=6;" edge="1" parent="1" source="bznOIikUApJCvlGb8H-H-36" target="bznOIikUApJCvlGb8H-H-30">
          <mxGeometry relative="1" as="geometry">
            <Array as="points">
              <mxPoint x="1280" y="660" />
            </Array>
          </mxGeometry>
        </mxCell>
        <mxCell id="bznOIikUApJCvlGb8H-H-54" style="edgeStyle=none;rounded=0;sketch=0;orthogonalLoop=1;jettySize=auto;html=1;fontSize=12;endArrow=classic;endFill=1;startSize=6;endSize=6;" edge="1" parent="1" source="bznOIikUApJCvlGb8H-H-36" target="bznOIikUApJCvlGb8H-H-31">
          <mxGeometry relative="1" as="geometry" />
        </mxCell>
        <mxCell id="bznOIikUApJCvlGb8H-H-36" value="Video" style="rounded=0;whiteSpace=wrap;html=1;fontSize=16;" vertex="1" parent="1">
          <mxGeometry x="1360" y="560" width="120" height="60" as="geometry" />
        </mxCell>
        <mxCell id="bznOIikUApJCvlGb8H-H-42" style="edgeStyle=none;rounded=0;sketch=0;orthogonalLoop=1;jettySize=auto;html=1;fontSize=12;endArrow=classic;endFill=1;startSize=6;endSize=6;" edge="1" parent="1" source="bznOIikUApJCvlGb8H-H-37" target="bznOIikUApJCvlGb8H-H-30">
          <mxGeometry relative="1" as="geometry">
            <Array as="points" />
          </mxGeometry>
        </mxCell>
        <mxCell id="bznOIikUApJCvlGb8H-H-44" style="edgeStyle=none;rounded=0;sketch=0;orthogonalLoop=1;jettySize=auto;html=1;fontSize=12;endArrow=classic;endFill=1;startSize=6;endSize=6;" edge="1" parent="1" source="bznOIikUApJCvlGb8H-H-37" target="bznOIikUApJCvlGb8H-H-36">
          <mxGeometry relative="1" as="geometry" />
        </mxCell>
        <mxCell id="bznOIikUApJCvlGb8H-H-37" value="Broadcast" style="rounded=0;whiteSpace=wrap;html=1;fontSize=16;" vertex="1" parent="1">
          <mxGeometry x="1360" y="660" width="120" height="60" as="geometry" />
        </mxCell>
        <mxCell id="bznOIikUApJCvlGb8H-H-60" style="edgeStyle=none;rounded=0;sketch=0;orthogonalLoop=1;jettySize=auto;html=1;fontSize=12;endArrow=classic;endFill=1;startSize=6;endSize=6;" edge="1" parent="1" source="bznOIikUApJCvlGb8H-H-38" target="bznOIikUApJCvlGb8H-H-36">
          <mxGeometry relative="1" as="geometry">
            <Array as="points">
              <mxPoint x="1490" y="740" />
              <mxPoint x="1490" y="640" />
            </Array>
          </mxGeometry>
        </mxCell>
        <mxCell id="bznOIikUApJCvlGb8H-H-61" style="edgeStyle=none;rounded=0;sketch=0;orthogonalLoop=1;jettySize=auto;html=1;fontSize=12;endArrow=classic;endFill=1;startSize=6;endSize=6;" edge="1" parent="1" source="bznOIikUApJCvlGb8H-H-38" target="bznOIikUApJCvlGb8H-H-30">
          <mxGeometry relative="1" as="geometry" />
        </mxCell>
        <mxCell id="bznOIikUApJCvlGb8H-H-62" style="edgeStyle=none;rounded=0;sketch=0;orthogonalLoop=1;jettySize=auto;html=1;fontSize=12;endArrow=classic;endFill=1;startSize=6;endSize=6;" edge="1" parent="1" source="bznOIikUApJCvlGb8H-H-38" target="bznOIikUApJCvlGb8H-H-37">
          <mxGeometry relative="1" as="geometry" />
        </mxCell>
        <mxCell id="bznOIikUApJCvlGb8H-H-63" style="edgeStyle=none;rounded=0;sketch=0;orthogonalLoop=1;jettySize=auto;html=1;fontSize=12;endArrow=classic;endFill=1;startSize=6;endSize=6;exitX=0;exitY=0.833;exitDx=0;exitDy=0;exitPerimeter=0;" edge="1" parent="1" source="bznOIikUApJCvlGb8H-H-38" target="bznOIikUApJCvlGb8H-H-28">
          <mxGeometry relative="1" as="geometry">
            <Array as="points">
              <mxPoint x="1170" y="620" />
              <mxPoint x="1170" y="540" />
            </Array>
          </mxGeometry>
        </mxCell>
        <mxCell id="bznOIikUApJCvlGb8H-H-64" style="edgeStyle=none;rounded=0;sketch=0;orthogonalLoop=1;jettySize=auto;html=1;fontSize=12;endArrow=classic;endFill=1;startSize=6;endSize=6;entryX=1;entryY=1;entryDx=0;entryDy=0;exitX=0;exitY=1;exitDx=0;exitDy=0;" edge="1" parent="1" source="bznOIikUApJCvlGb8H-H-38" target="bznOIikUApJCvlGb8H-H-27">
          <mxGeometry relative="1" as="geometry">
            <Array as="points" />
          </mxGeometry>
        </mxCell>
        <mxCell id="bznOIikUApJCvlGb8H-H-65" style="edgeStyle=none;rounded=0;sketch=0;orthogonalLoop=1;jettySize=auto;html=1;fontSize=12;endArrow=classic;endFill=1;startSize=6;endSize=6;entryX=0.833;entryY=1;entryDx=0;entryDy=0;entryPerimeter=0;exitX=0;exitY=0.667;exitDx=0;exitDy=0;exitPerimeter=0;" edge="1" parent="1" source="bznOIikUApJCvlGb8H-H-38" target="bznOIikUApJCvlGb8H-H-29">
          <mxGeometry relative="1" as="geometry">
            <Array as="points">
              <mxPoint x="1180" y="620" />
              <mxPoint x="1180" y="460" />
            </Array>
          </mxGeometry>
        </mxCell>
        <mxCell id="bznOIikUApJCvlGb8H-H-38" value="Website" style="rounded=0;whiteSpace=wrap;html=1;fontSize=16;" vertex="1" parent="1">
          <mxGeometry x="1360" y="760" width="120" height="60" as="geometry" />
        </mxCell>
      </root>
    </mxGraphModel>
  </diagram>
</mxfile>
